<svg xmlns="http://www.w3.org/2000/svg" viewBox="0 0 62.99 38.1"><defs><style>.cls-1{fill:#967b4f;}</style></defs><title>Fichier 8</title><g id="Calque_2" data-name="Calque 2"><g id="Calque_1-2" data-name="Calque 1"><path class="cls-1" d="M58.59,16a4.84,4.84,0,0,0-.11,1.56,4.9,4.9,0,0,0,1.31,2.94,4.88,4.88,0,0,0,2-1.4v0A4.79,4.79,0,0,0,62.86,17a5,5,0,0,0-1.2-4.5A4.91,4.91,0,0,0,58.59,16Zm3.56.84a2.78,2.78,0,0,1-1.83,2l-.16.05L60,18.79a2.82,2.82,0,0,1,1.09-4.66l.16-.06.11.12A2.77,2.77,0,0,1,62.15,16.83Z"/><path class="cls-1" d="M59.65,21.11,59.53,21a5.52,5.52,0,0,1-1.47-2.71,18.33,18.33,0,0,1-1.87,2.27A18.57,18.57,0,0,1,53,23.2l-.22.14-.15-.21a17.37,17.37,0,0,1-1.76-3.26,17.93,17.93,0,0,1-1.13-4.05,6.67,6.67,0,0,1-2.69,1.73l-.16.05-.12-.11a6.72,6.72,0,0,1-1.48-2.31A24.54,24.54,0,0,1,42.41,18a23.39,23.39,0,0,1-4.12,2.7l-.17.1L38,20.62a19.21,19.21,0,0,1-2.64-3.38A18.55,18.55,0,0,1,33.15,12a8.15,8.15,0,0,1-1.51,1.22h0a.22.22,0,0,1-.13,0h0a.2.2,0,0,1-.13,0h0A8.15,8.15,0,0,1,29.84,12a19.14,19.14,0,0,1-2.19,5.26A19.21,19.21,0,0,1,25,20.62l-.14.15-.18-.1A23.31,23.31,0,0,1,20.58,18a24.54,24.54,0,0,1-2.89-2.79,6.75,6.75,0,0,1-1.49,2.31l-.12.11-.15-.05a6.61,6.61,0,0,1-2.69-1.73,17.93,17.93,0,0,1-1.13,4.05,18,18,0,0,1-1.76,3.26l-.15.21L10,23.2a18.63,18.63,0,0,1-3.19-2.65,18.25,18.25,0,0,1-1.86-2.27A5.52,5.52,0,0,1,3.46,21l-.12.12-.16-.06a5.73,5.73,0,0,1-1.47-.77c.61,1.47,1.16,3,1.64,4.44a61.75,61.75,0,0,1,1.7,6.52C7.47,29,18.41,27.3,31.49,27.3h0c13.08,0,24,1.66,26.45,3.94a57.24,57.24,0,0,1,1.7-6.52c.48-1.48,1-3,1.63-4.44a5.51,5.51,0,0,1-1.46.77Z"/><path class="cls-1" d="M45.65,14.62A6.21,6.21,0,0,0,47.05,17,6,6,0,0,0,49.71,15a5.84,5.84,0,0,0,1.15-2.39,6,6,0,0,0-1.51-5.58,6.11,6.11,0,0,0-3.7,7.52Zm.86-3A3.33,3.33,0,0,1,48.72,9.2l.15-.06.12.12a3.39,3.39,0,0,1-1.31,5.6l-.15.06-.12-.12A3.38,3.38,0,0,1,46.51,11.63Z"/><path class="cls-1" d="M4.51,17.55A5.16,5.16,0,0,0,4.4,16a4.91,4.91,0,0,0-3.07-3.5A4.91,4.91,0,0,0,.13,17a4.69,4.69,0,0,0,1.06,2.08v0a4.88,4.88,0,0,0,2,1.4A5,5,0,0,0,4.51,17.55ZM2.83,18.91l-.16-.05a2.83,2.83,0,0,1-1.09-4.67l.12-.12.16.06a2.81,2.81,0,0,1,1.08,4.66Z"/><path class="cls-1" d="M13.27,15A6.09,6.09,0,0,0,15.94,17a6.07,6.07,0,0,0,1.39-2.37v0a6.11,6.11,0,0,0-3.71-7.52,6.1,6.1,0,0,0-.36,8ZM14,9.26l.11-.12.16.06a3.33,3.33,0,0,1,2.21,2.43,3.38,3.38,0,0,1-.9,3.17l-.12.12-.16-.06A3.38,3.38,0,0,1,14,9.26Z"/><path class="cls-1" d="M31.49,12.65h0a7.09,7.09,0,0,0,1.59-1.39A7.54,7.54,0,0,0,31.49,0h0A7.56,7.56,0,0,0,29.9,11.26,7.32,7.32,0,0,0,31.49,12.65Zm-.15-9.79h.05l.05,0h.1l.06,0h0a4.09,4.09,0,0,1,0,7h0a.33.33,0,0,1-.13,0h0a.28.28,0,0,1-.13,0h0a4.09,4.09,0,0,1-1.93-3.49A4,4,0,0,1,31.34,2.86Z"/><path class="cls-1" d="M49.89,33.05a1,1,0,0,1,.41-1.45c1.09-.61,3.74-.47,6.59.35.4.11.74.22,1,.32a.6.6,0,0,0-.08-.29c-1.06-2-11.21-4.14-26.36-4.14h0C16.34,27.84,6.2,29.94,5.14,32a.69.69,0,0,0-.09.3c.3-.1.64-.21,1-.32,2.86-.82,5.51-1,6.6-.35a1,1,0,0,1,.54.63,1.08,1.08,0,0,1-.13.82c-.6,1.08-2.93,2.36-5.79,3.18a19.39,19.39,0,0,1-2.26.5V38.1c2.21-2.08,11.32-4,26.44-4h0c15.13,0,24.23,1.91,26.44,4V36.73a20.34,20.34,0,0,1-2.26-.5C52.81,35.41,50.49,34.13,49.89,33.05Zm-18.4.3h0c-3.29,0-6.79-.78-6.79-2.23s3.5-2.23,6.79-2.23h0c3.29,0,6.79.78,6.79,2.23S34.78,33.35,31.49,33.35Z"/></g></g></svg>