<svg xmlns="http://www.w3.org/2000/svg" xmlns:xlink="http://www.w3.org/1999/xlink" viewBox="0 0 62.79 32.64"><defs><style>.cls-1{fill:none;}.cls-2{clip-path:url(#clip-path);}.cls-3{fill:#c0c0bf;}.cls-4{clip-path:url(#clip-path-2);}</style><clipPath id="clip-path" transform="translate(-4.3)"><rect class="cls-1" width="35.7" height="29.45"/></clipPath><clipPath id="clip-path-2" transform="translate(-4.3)"><rect class="cls-1" x="35.7" width="35.7" height="29.45" transform="translate(107.09 29.45) rotate(-180)"/></clipPath></defs><title>Fichier 7</title><g id="Calque_2" data-name="Calque 2"><g id="Calque_1-2" data-name="Calque 1"><g class="cls-2"><path class="cls-3" d="M63.85,14.84l-.12-.12A5.48,5.48,0,0,1,62.26,12a19.1,19.1,0,0,1-1.86,2.28,19,19,0,0,1-3.19,2.64l-.22.14-.15-.21a18.6,18.6,0,0,1-1.76-3.26,17.79,17.79,0,0,1-1.13-4,6.61,6.61,0,0,1-2.69,1.73l-.15.06L51,11.22A6.65,6.65,0,0,1,49.5,8.91a23.85,23.85,0,0,1-2.89,2.8,24.49,24.49,0,0,1-4.11,2.7l-.18.09-.14-.14A19.66,19.66,0,0,1,39.54,11a19.14,19.14,0,0,1-2.19-5.26,8.15,8.15,0,0,1-1.51,1.22h0a.28.28,0,0,1-.13,0h0a.31.31,0,0,1-.13,0h0A7.9,7.9,0,0,1,34,5.71,18.55,18.55,0,0,1,31.85,11a19.28,19.28,0,0,1-2.64,3.39l-.14.14-.17-.09a24.57,24.57,0,0,1-4.12-2.7,23.85,23.85,0,0,1-2.89-2.8,6.63,6.63,0,0,1-1.48,2.31l-.12.12-.16-.06a6.67,6.67,0,0,1-2.69-1.73,17.79,17.79,0,0,1-1.13,4,17.06,17.06,0,0,1-1.76,3.26l-.15.21-.22-.14A19,19,0,0,1,11,14.29,19.19,19.19,0,0,1,9.13,12a5.4,5.4,0,0,1-1.47,2.71l-.12.12-.16-.05A5.26,5.26,0,0,1,5.92,14c.6,1.47,1.15,3,1.63,4.44A57.24,57.24,0,0,1,9.25,25C11.68,22.7,22.61,21,35.7,21h0c13.07,0,24,1.67,26.44,3.95a59,59,0,0,1,1.71-6.53c.47-1.48,1-3,1.63-4.44a5.46,5.46,0,0,1-1.47.78Z" transform="translate(-4.3)"/><path class="cls-3" d="M42.18,14.36C37.41,9.25,35.7,0,35.7,0c-2.46,10.86-6.63,14.5-6.63,14.5-8.59-4.68-10.19-11-10.19-11-1.66,8.9-4.48,13.55-4.48,13.55A35.36,35.36,0,0,1,4.3,4.79,75.73,75.73,0,0,0,9.25,25S19.15,20.84,35.7,21Z" transform="translate(-4.3)"/></g><g class="cls-4"><path class="cls-3" d="M7.54,14.84l.12-.12A5.4,5.4,0,0,0,9.13,12,19.19,19.19,0,0,0,11,14.29a19,19,0,0,0,3.18,2.64l.22.14.15-.21a17.37,17.37,0,0,0,1.76-3.26,17.79,17.79,0,0,0,1.13-4,6.67,6.67,0,0,0,2.69,1.73l.16.06.12-.12a6.63,6.63,0,0,0,1.48-2.31,23.85,23.85,0,0,0,2.89,2.8,24.57,24.57,0,0,0,4.12,2.7l.17.09.14-.14A19.66,19.66,0,0,0,31.85,11,18.55,18.55,0,0,0,34,5.71a7.9,7.9,0,0,0,1.52,1.22h0a.31.31,0,0,0,.13,0h0a.28.28,0,0,0,.13,0h0a8.15,8.15,0,0,0,1.51-1.22A19.14,19.14,0,0,0,39.54,11a19.28,19.28,0,0,0,2.64,3.39l.14.14.18-.09a24.49,24.49,0,0,0,4.11-2.7,23.85,23.85,0,0,0,2.89-2.8A6.65,6.65,0,0,0,51,11.22l.12.12.15-.06A6.61,6.61,0,0,0,54,9.55a17.79,17.79,0,0,0,1.13,4,18.25,18.25,0,0,0,1.76,3.26l.15.21.22-.14a19,19,0,0,0,3.19-2.64A19.1,19.1,0,0,0,62.26,12a5.48,5.48,0,0,0,1.47,2.71l.12.12.16-.05A5.46,5.46,0,0,0,65.48,14c-.61,1.47-1.16,3-1.63,4.44A59.44,59.44,0,0,0,62.14,25C59.72,22.7,48.78,21,35.7,21h0C22.62,21,11.69,22.7,9.25,25a56.86,56.86,0,0,0-1.7-6.53c-.48-1.48-1-3-1.63-4.44a5.26,5.26,0,0,0,1.46.78Z" transform="translate(-4.3)"/><path class="cls-3" d="M29.21,14.36C34,9.25,35.7,0,35.7,0c2.45,10.86,6.62,14.5,6.62,14.5,8.59-4.68,10.19-11,10.19-11C54.18,12.42,57,17.07,57,17.07A35.36,35.36,0,0,0,67.09,4.79a75.3,75.3,0,0,1-5,20.18S52.24,20.84,35.7,21Z" transform="translate(-4.3)"/></g><path class="cls-3" d="M54.09,27.59a1,1,0,0,1,.41-1.44c1.09-.61,3.74-.47,6.6.34.4.12.73.22,1,.33a.69.69,0,0,0-.09-.3c-1.06-2-11.2-4.14-26.35-4.14h0c-15.15,0-25.3,2.1-26.36,4.14a.67.67,0,0,0-.08.3l1-.33c2.85-.81,5.5-.95,6.59-.34a1,1,0,0,1,.54.62,1,1,0,0,1-.13.82c-.6,1.09-2.92,2.37-5.78,3.18a20.4,20.4,0,0,1-2.26.51v1.36c2.21-2.07,11.31-4,26.44-4h0c15.12,0,24.23,1.92,26.44,4V31.28a19.9,19.9,0,0,1-2.26-.51C57,30,54.69,28.68,54.09,27.59Zm-18.39.3h0c-3.29,0-6.79-.78-6.79-2.22s3.5-2.23,6.79-2.23h0c3.29,0,6.79.78,6.79,2.23S39,27.89,35.7,27.89Z" transform="translate(-4.3)"/></g></g></svg>