<svg xmlns="http://www.w3.org/2000/svg" viewBox="0 0 62.99 41.37"><defs><style>.cls-1{fill:#1d242d;}</style></defs><title>Fichier 9</title><g id="Calque_2" data-name="Calque 2"><g id="Calque_1-2" data-name="Calque 1"><path class="cls-1" d="M58.59,19.27a4.78,4.78,0,0,0-.11,1.55,4.9,4.9,0,0,0,1.31,2.94,4.88,4.88,0,0,0,2-1.4h0a4.89,4.89,0,0,0,1.06-2.09,5,5,0,0,0-1.2-4.5A4.91,4.91,0,0,0,58.59,19.27Zm3.56.83a2.78,2.78,0,0,1-1.83,2l-.16.05L60,22.06a2.82,2.82,0,0,1,1.09-4.66l.16-.06.11.12A2.77,2.77,0,0,1,62.15,20.1Z"/><path class="cls-1" d="M59.65,24.38l-.12-.12a5.52,5.52,0,0,1-1.47-2.71,18.33,18.33,0,0,1-1.87,2.27A18.57,18.57,0,0,1,53,26.47l-.22.14-.15-.21a17.37,17.37,0,0,1-1.76-3.26,17.79,17.79,0,0,1-1.13-4.05,6.67,6.67,0,0,1-2.69,1.73l-.16.05-.12-.11a6.72,6.72,0,0,1-1.48-2.31,23.76,23.76,0,0,1-2.89,2.79A24,24,0,0,1,38.29,24l-.17.09L38,23.89a19.21,19.21,0,0,1-2.64-3.38,18.55,18.55,0,0,1-2.19-5.26,8.15,8.15,0,0,1-1.51,1.22h0a.22.22,0,0,1-.13,0h0a.2.2,0,0,1-.13,0h0a8.15,8.15,0,0,1-1.51-1.22,19.14,19.14,0,0,1-2.19,5.26A19.66,19.66,0,0,1,25,23.9l-.14.14L24.69,24a23.94,23.94,0,0,1-4.11-2.71,23.76,23.76,0,0,1-2.89-2.79,6.75,6.75,0,0,1-1.49,2.31l-.12.11-.15-.05a6.61,6.61,0,0,1-2.69-1.73,17.93,17.93,0,0,1-1.13,4.05,18,18,0,0,1-1.76,3.26l-.15.21L10,26.47a18.63,18.63,0,0,1-3.19-2.65,18.25,18.25,0,0,1-1.86-2.27,5.52,5.52,0,0,1-1.47,2.71l-.12.12-.16-.06a5.73,5.73,0,0,1-1.47-.77c.61,1.47,1.16,3,1.64,4.44a61.75,61.75,0,0,1,1.7,6.52c2.42-2.27,13.36-3.94,26.44-3.94h0c13.08,0,24,1.66,26.45,3.94A57.24,57.24,0,0,1,59.64,28c.48-1.48,1-3,1.63-4.44a5.51,5.51,0,0,1-1.46.77Z"/><path class="cls-1" d="M45.65,17.89a6.14,6.14,0,0,0,1.4,2.37,6,6,0,0,0,2.66-2,5.84,5.84,0,0,0,1.15-2.39,6,6,0,0,0-1.51-5.58,6.11,6.11,0,0,0-3.7,7.52Zm.86-3a3.33,3.33,0,0,1,2.21-2.43l.15-.06.12.12a3.39,3.39,0,0,1-1.31,5.6l-.15.06-.12-.12A3.38,3.38,0,0,1,46.51,14.9Z"/><path class="cls-1" d="M4.51,20.82a5.07,5.07,0,0,0-.11-1.55,4.91,4.91,0,0,0-3.07-3.51,4.91,4.91,0,0,0-1.2,4.5,4.78,4.78,0,0,0,1.06,2.09h0a4.88,4.88,0,0,0,2,1.4A5,5,0,0,0,4.51,20.82ZM2.83,22.18l-.16-.05a2.83,2.83,0,0,1-1.09-4.67l.12-.12.16.06a2.81,2.81,0,0,1,1.08,4.66Z"/><path class="cls-1" d="M13.27,18.31a6.09,6.09,0,0,0,2.67,2,6,6,0,0,0,1.39-2.37v0a6.11,6.11,0,0,0-3.71-7.52,6.1,6.1,0,0,0-.36,8ZM14,12.53l.11-.12.16.06a3.33,3.33,0,0,1,2.21,2.43,3.38,3.38,0,0,1-.9,3.17l-.12.12-.16-.06a3.38,3.38,0,0,1-1.3-5.6Z"/><path class="cls-1" d="M49.89,36.32a1,1,0,0,1,.41-1.45c1.09-.61,3.74-.47,6.59.35.4.11.74.22,1,.32a.6.6,0,0,0-.08-.29c-1.06-2-11.21-4.14-26.36-4.14h0c-15.15,0-25.29,2.1-26.35,4.13a.69.69,0,0,0-.09.3l1-.32c2.86-.82,5.51-1,6.6-.35a1,1,0,0,1,.54.63,1.08,1.08,0,0,1-.13.82c-.6,1.09-2.93,2.36-5.79,3.18a19.39,19.39,0,0,1-2.26.5v1.37c2.21-2.08,11.32-4,26.44-4h0c15.13,0,24.23,1.91,26.44,4V40a20.34,20.34,0,0,1-2.26-.5C52.81,38.68,50.49,37.41,49.89,36.32Zm-18.4.3h0c-3.29,0-6.79-.78-6.79-2.23s3.5-2.23,6.79-2.23h0c3.29,0,6.79.78,6.79,2.23S34.78,36.62,31.49,36.62Z"/><polygon class="cls-1" points="21.63 4.89 25.76 4.89 30.23 15.26 21.63 4.89"/><polygon class="cls-1" points="26.42 4.89 31.16 4.89 31.16 15.85 26.42 4.89"/><polygon class="cls-1" points="26.42 4.25 31.16 0.39 31.16 4.25 26.42 4.25"/><polygon class="cls-1" points="25.93 3.91 25.1 0 30.53 0 25.93 3.91"/><polygon class="cls-1" points="21.63 4.25 24.56 0.39 25.39 4.25 21.63 4.25"/><polygon class="cls-1" points="41.36 4.89 37.23 4.89 32.75 15.26 41.36 4.89"/><polygon class="cls-1" points="36.57 4.89 31.82 4.89 31.82 15.85 36.57 4.89"/><polygon class="cls-1" points="36.57 4.25 31.82 0.39 31.82 4.25 36.57 4.25"/><polygon class="cls-1" points="37.06 3.91 37.89 0 32.46 0 37.06 3.91"/><polygon class="cls-1" points="41.36 4.25 38.43 0.39 37.59 4.25 41.36 4.25"/></g></g></svg>