<svg xmlns="http://www.w3.org/2000/svg" viewBox="0 0 174.64 156.12"><g id="Calque_2" data-name="Calque 2"><g id="Layer_1" data-name="Layer 1"><path d="M147,7.18l-1.29-.45A171.21,171.21,0,0,0,121.2.41L119,0V5.54a183.72,183.72,0,0,0-63.28,0V0L53.43.41A171.07,171.07,0,0,0,29,6.73l-1.29.45V13A126.52,126.52,0,0,0,.84,26.63L0,27.2V128.91l.84.57a125.57,125.57,0,0,0,26.85,13.6v5.86l1.29.44a168.46,168.46,0,0,0,24.45,6.32l2.25.42v-5.54a183,183,0,0,0,31.64,2.79A183,183,0,0,0,119,150.58v5.54l2.24-.42a168.59,168.59,0,0,0,24.46-6.32l1.29-.44v-5.86a125.33,125.33,0,0,0,26.85-13.6l.84-.57V27.21l-.84-.57A125.35,125.35,0,0,0,147,13ZM27.69,139A121.51,121.51,0,0,1,3.81,126.88v-10.5c.72.37,1.49.71,2.23,1.08s1.44.7,2.19,1c1.45.68,2.95,1.33,4.46,2,.65.28,1.29.56,2,.82,2.19.88,4.42,1.72,6.72,2.51.26.1.53.17.79.26,1.82.62,3.66,1.22,5.54,1.79Zm0-17.23c-1.07-.34-2.13-.67-3.18-1-.81-.26-1.63-.52-2.43-.8-1.68-.58-3.32-1.21-4.94-1.84-.57-.23-1.16-.43-1.72-.66-2.15-.87-4.23-1.78-6.26-2.73L7.73,114c-1.33-.66-2.65-1.31-3.92-2V98.34c.78.23,1.6.44,2.41.66s1.47.42,2.23.61c1.47.39,3,.76,4.51,1.12l1.86.45c2.17.49,4.38,1,6.67,1.41l1.66.31,4.54.84Zm0-22-3.44-.61c-.77-.15-1.56-.29-2.33-.45C20,98.4,18.2,98,16.39,97.61l-1.14-.25c-2.15-.5-4.22-1-6.24-1.54-.68-.18-1.32-.37-2-.56-1.09-.31-2.17-.61-3.21-.93V80H27.69Zm0-23.68H3.81V61.66c1.08-.33,2.19-.64,3.32-1,.62-.16,1.21-.35,1.84-.51q3-.81,6.29-1.55c.3-.07.62-.13.92-.21,1.87-.41,3.78-.82,5.74-1.2l2.28-.44,3.49-.62Zm0-23.88c-1.5.26-3,.54-4.43.82l-1.81.32c-2.26.45-4.46.92-6.62,1.41-.68.15-1.32.32-2,.47-1.49.36-3,.71-4.39,1.09L6.18,57l-2.37.65V44c1.29-.69,2.62-1.37,4-2,.46-.22.9-.46,1.37-.68,2-1,4.11-1.86,6.26-2.74.55-.23,1.14-.43,1.7-.65,1.63-.64,3.27-1.26,5-1.85.8-.28,1.62-.54,2.42-.81l3.19-1Zm0-22.11c-1.88.57-3.72,1.18-5.54,1.79-.26.1-.53.17-.79.25-2.3.8-4.53,1.64-6.72,2.52-.66.27-1.3.55-2,.83-1.51.63-3,1.28-4.46,1.94L6,38.54c-.74.37-1.51.71-2.23,1.08V29.23A121.49,121.49,0,0,1,27.69,17.08Zm24.18-24V151.52A165.3,165.3,0,0,1,31.5,146.2V9.92A165.3,165.3,0,0,1,51.87,4.59ZM119,146.74a180.32,180.32,0,0,1-63.28,0V131.91c1.15.16,2.31.27,3.46.42s2.36.31,3.54.44c1.44.16,2.89.28,4.33.4s2.63.26,3.95.35,2.41.14,3.62.2c1.57.1,3.13.2,4.71.26h1.28c2.25.07,4.5.13,6.75.13s4.5-.06,6.74-.13h1.29c1.57-.06,3.14-.16,4.71-.26,1.21-.06,2.41-.11,3.61-.2s2.64-.22,4-.35,2.89-.24,4.34-.4c1.18-.13,2.36-.29,3.54-.44s2.31-.26,3.46-.42ZM119,128l-3.46.46c-1.27.16-2.52.33-3.78.47-1.46.16-2.94.28-4.41.42-1.23.11-2.45.23-3.68.33-1.58.11-3.16.18-4.75.25-1.14.07-2.28.15-3.41.19-2.06.07-4.1.1-6.15.12-1.33,0-2.66,0-4,0-2,0-4.1,0-6.14-.12-1.15,0-2.29-.12-3.43-.19-1.57-.07-3.16-.14-4.74-.25-1.23-.1-2.45-.22-3.68-.33-1.48-.14-3-.26-4.41-.42-1.27-.14-2.52-.31-3.78-.47L55.68,128V107.19c3.18.25,6.44.4,9.68.57,1.84.1,3.64.26,5.5.33,4.62.19,9.28.27,13.94.3.84,0,1.67,0,2.52,0s1.68,0,2.52,0c4.66,0,9.32-.11,13.94-.3,1.85-.07,3.66-.23,5.5-.33,3.24-.17,6.5-.32,9.68-.57Zm0-24.71c-3.23.27-6.51.45-9.79.63-1.83.1-3.61.25-5.45.33-10.88.45-21.93.45-32.8,0-1.84-.08-3.63-.23-5.45-.33-3.28-.18-6.57-.36-9.79-.63V80H119Zm0-27.16H55.68V52.68c3.22-.25,6.48-.43,9.74-.62,1.85-.1,3.66-.26,5.52-.33,10.86-.45,21.89-.45,32.76,0,1.86.07,3.67.23,5.51.33,3.27.19,6.53.37,9.75.62Zm0-27.33c-3.63-.3-7.32-.48-11-.66-1.35-.08-2.66-.19-4-.25-5.51-.22-11.06-.35-16.62-.35s-11.12.13-16.63.35c-1.35.06-2.66.17-4,.25-3.68.18-7.37.36-11,.66V28c1.25-.18,2.52-.35,3.79-.51l3.4-.43c1.49-.16,3-.28,4.51-.42,1.21-.1,2.42-.23,3.63-.32,1.45-.1,2.9-.17,4.34-.25s2.57-.16,3.86-.19,2.82-.06,4.23-.09q3.87-.06,7.76,0c1.4,0,2.82,0,4.23.09s2.57.13,3.86.19,2.89.15,4.33.25c1.22.09,2.43.22,3.64.32,1.5.14,3,.26,4.51.42l3.4.43c1.26.16,2.53.33,3.79.51Zm0-24.72c-1.2-.17-2.42-.3-3.63-.45l-3.25-.41c-1.87-.2-3.77-.37-5.66-.53L104,22.5c-2.6-.19-5.2-.33-7.82-.44h-.35q-4.25-.16-8.52-.17t-8.52.17h-.35c-2.62.11-5.23.25-7.83.44l-2.41.21c-1.89.16-3.78.33-5.65.53l-3.25.41c-1.22.15-2.43.28-3.63.45V9.38a180.32,180.32,0,0,1,63.28,0Zm24.18-12.48V146.2a165.93,165.93,0,0,1-20.38,5.32V4.59a165.93,165.93,0,0,1,20.38,5.33Zm27.69,115.26A121,121,0,0,1,147,139V125.84c1.9-.58,3.77-1.19,5.61-1.81l.71-.23c2.31-.8,4.55-1.65,6.74-2.53.64-.25,1.25-.53,1.89-.79,1.53-.65,3-1.3,4.53-2,.73-.34,1.43-.68,2.14-1s1.53-.7,2.26-1.09Zm0-14.84c-1.26.67-2.57,1.34-3.91,2-.49.24-.95.49-1.45.72-2,1-4.1,1.86-6.24,2.73-.58.23-1.19.44-1.77.67-1.61.63-3.22,1.25-4.89,1.83-.81.28-1.64.54-2.46.82-1,.35-2.1.66-3.16,1V103.74l4.55-.84,1.65-.31c2.28-.44,4.51-.92,6.68-1.41l1.86-.45c1.51-.36,3-.73,4.5-1.12.76-.19,1.5-.4,2.24-.61s1.63-.43,2.4-.66Zm0-17.71c-1.15.35-2.34.69-3.55,1-.54.14-1.05.3-1.61.45-2,.54-4.13,1-6.29,1.55l-1,.22c-1.84.41-3.72.82-5.64,1.19-.76.16-1.55.3-2.33.45l-3.44.61V80h23.88Zm0-18.18H147v-20l3.45.62,2.33.44c1.84.36,3.61.74,5.37,1.13l1.32.29c2.13.48,4.2,1,6.21,1.53l2,.57c1.08.29,2.15.6,3.19.91Zm0-18.5c-.77-.22-1.58-.43-2.37-.64l-2.28-.63c-1.42-.38-2.9-.73-4.38-1.09-.68-.15-1.31-.32-2-.47q-3.21-.74-6.62-1.41l-1.79-.32c-1.47-.28-2.93-.56-4.44-.82V34.2c1.06.33,2.13.67,3.16,1,.82.27,1.65.53,2.46.81,1.67.59,3.28,1.2,4.89,1.83.58.23,1.19.44,1.77.67,2.14.88,4.23,1.78,6.24,2.74.5.22,1,.48,1.45.72,1.34.64,2.65,1.3,3.91,2Zm0-28.42V39.62c-.73-.37-1.51-.72-2.26-1.09l-2.14-1c-1.48-.68-3-1.33-4.53-2L160,34.73c-2.19-.89-4.43-1.73-6.74-2.53l-.75-.24c-1.83-.62-3.68-1.22-5.57-1.8V17.09A120.93,120.93,0,0,1,170.83,29.23Z"/></g></g></svg>