<svg xmlns="http://www.w3.org/2000/svg" viewBox="-2.5 -4 80 120"><defs><style>.cls-1{fill:#967b4f;}</style></defs><title>Fichier 4</title><g id="Calque_2" data-name="Calque 2"><g id="Calque_1-2" data-name="Calque 1"><path class="cls-1" d="M64.66,16a4.84,4.84,0,0,0-.11,1.56,5,5,0,0,0,1.31,2.94,4.88,4.88,0,0,0,2-1.4v0A4.79,4.79,0,0,0,68.93,17a4.94,4.94,0,0,0-1.2-4.5A4.91,4.91,0,0,0,64.66,16Zm3.57.84a2.81,2.81,0,0,1-1.84,2l-.16.05-.12-.12a2.82,2.82,0,0,1,1.09-4.66l.16-.06.12.12A2.82,2.82,0,0,1,68.23,16.83Z"/><path class="cls-1" d="M65.72,21.11,65.6,21a5.52,5.52,0,0,1-1.47-2.71,18.55,18.55,0,0,1-5,4.92l-.22.14-.15-.21a17.78,17.78,0,0,1-2.89-7.31,6.67,6.67,0,0,1-2.69,1.73L53,17.6l-.11-.11a6.6,6.6,0,0,1-1.49-2.31A24.54,24.54,0,0,1,48.48,18a23.69,23.69,0,0,1-4.11,2.7l-.18.1-.14-.15a19.21,19.21,0,0,1-2.64-3.38A18.84,18.84,0,0,1,39.22,12a8.15,8.15,0,0,1-1.51,1.22h0a.22.22,0,0,1-.13,0h0a.22.22,0,0,1-.13,0h0A8.15,8.15,0,0,1,35.91,12a18.84,18.84,0,0,1-2.19,5.26,19.21,19.21,0,0,1-2.64,3.38l-.14.15-.17-.1A23,23,0,0,1,26.65,18a24.54,24.54,0,0,1-2.89-2.79,6.6,6.6,0,0,1-1.49,2.31l-.11.11L22,17.55a6.67,6.67,0,0,1-2.69-1.73,17.78,17.78,0,0,1-2.89,7.31l-.15.21-.22-.14a18.57,18.57,0,0,1-3.18-2.65A18.33,18.33,0,0,1,11,18.28,5.52,5.52,0,0,1,9.53,21l-.12.12-.16-.06a5.73,5.73,0,0,1-1.47-.77c.61,1.47,1.16,3,1.64,4.44a59.41,59.41,0,0,1,1.7,6.52C13.55,29,24.48,27.3,37.57,27.3h0c13.07,0,24,1.66,26.44,3.94a59.41,59.41,0,0,1,1.7-6.52c.48-1.48,1-3,1.64-4.44a5.73,5.73,0,0,1-1.47.77Z"/><path class="cls-1" d="M51.73,14.62A6.07,6.07,0,0,0,53.12,17a6.18,6.18,0,0,0,3.82-4.34,6.07,6.07,0,0,0-1.51-5.58,6.11,6.11,0,0,0-3.71,7.52Zm.85-3A3.33,3.33,0,0,1,54.79,9.2l.15-.06.12.12a3.38,3.38,0,0,1-1.3,5.6l-.16.06-.12-.12A3.38,3.38,0,0,1,52.58,11.63Z"/><path class="cls-1" d="M10.58,17.55A4.86,4.86,0,0,0,10.47,16a4.91,4.91,0,0,0-3.07-3.5A4.94,4.94,0,0,0,6.2,17a4.79,4.79,0,0,0,1.06,2.08v0a4.88,4.88,0,0,0,2,1.4A5,5,0,0,0,10.58,17.55ZM8.9,18.91l-.16-.05a2.84,2.84,0,0,1-1.09-4.67l.12-.12.16.06A2.82,2.82,0,0,1,9,18.79Z"/><path class="cls-1" d="M19.35,15A6,6,0,0,0,22,17a6.07,6.07,0,0,0,1.39-2.37v0A6.11,6.11,0,0,0,19.7,7.07a6.1,6.1,0,0,0-.36,8Zm.72-5.78.12-.12.15.06a3.33,3.33,0,0,1,2.21,2.43,3.38,3.38,0,0,1-.9,3.17l-.12.12-.16-.06a3.38,3.38,0,0,1-2.21-2.44A3.34,3.34,0,0,1,20.07,9.26Z"/><path class="cls-1" d="M37.57,12.65h0a7.32,7.32,0,0,0,1.59-1.39A7.56,7.56,0,0,0,37.57,0h0A7.56,7.56,0,0,0,36,11.26,7.38,7.38,0,0,0,37.57,12.65Zm-.16-9.79h.05l0,0h.11l.05,0h0a4.1,4.1,0,0,1,0,7h0a.33.33,0,0,1-.13,0h0a.33.33,0,0,1-.13,0h0a4.1,4.1,0,0,1,0-7Z"/><path class="cls-1" d="M56,33.05a1.08,1.08,0,0,1-.13-.82,1,1,0,0,1,.54-.63c1.09-.61,3.74-.47,6.59.35.4.11.74.22,1,.32a.51.51,0,0,0-.08-.29c-1.06-2-11.2-4.14-26.35-4.14h0c-15.16,0-25.3,2.1-26.36,4.13a.56.56,0,0,0-.08.3c.3-.1.63-.21,1-.32,2.85-.82,5.5-1,6.59-.35a1,1,0,0,1,.41,1.45c-.6,1.08-2.93,2.36-5.78,3.18a20,20,0,0,1-2.27.5V38.1c2.21-2.08,11.32-4,26.45-4h0c15.12,0,24.23,1.91,26.44,4V36.73a20.51,20.51,0,0,1-2.27-.5C58.89,35.41,56.56,34.13,56,33.05Zm-18.39.3h0c-3.3,0-6.79-.78-6.79-2.23s3.49-2.23,6.79-2.23h0c3.29,0,6.78.78,6.78,2.23S40.86,33.35,37.57,33.35Z"/><circle class="cls-1" cx="8.61" cy="58.02" r="8.61"/><circle class="cls-1" cx="37.57" cy="58.02" r="8.61"/><circle class="cls-1" cx="66.52" cy="58.02" r="8.61"/><circle class="cls-1" cx="23.09" cy="80.91" r="8.61"/><circle class="cls-1" cx="52.04" cy="80.91" r="8.61"/><circle class="cls-1" cx="37.57" cy="103.8" r="8.61"/></g></g></svg>
