<svg xmlns="http://www.w3.org/2000/svg" xmlns:xlink="http://www.w3.org/1999/xlink" viewBox="-2.5 -14 80 120"><defs><style>.cls-1{fill:none;}.cls-2{fill:#c0c0bf;}.cls-3{clip-path:url(#clip-path);}.cls-4{clip-path:url(#clip-path-2);}</style><clipPath id="clip-path"><rect class="cls-1" x="2.91" width="35.7" height="29.45"/></clipPath><clipPath id="clip-path-2"><rect class="cls-1" x="38.61" width="35.7" height="29.45" transform="translate(112.91 29.45) rotate(-180)"/></clipPath></defs><title>Fichier 5</title><g id="Calque_2" data-name="Calque 2"><g id="Calque_1-2" data-name="Calque 1"><circle class="cls-2" cx="8.61" cy="48.52" r="8.61"/><circle class="cls-2" cx="37.57" cy="48.52" r="8.61"/><circle class="cls-2" cx="66.52" cy="48.52" r="8.61"/><circle class="cls-2" cx="23.09" cy="71.41" r="8.61"/><circle class="cls-2" cx="52.04" cy="71.41" r="8.61"/><circle class="cls-2" cx="37.57" cy="94.29" r="8.61"/><g class="cls-3"><path class="cls-2" d="M66.76,14.84l-.11-.12A5.41,5.41,0,0,1,65.17,12a18.17,18.17,0,0,1-1.86,2.28,18.65,18.65,0,0,1-3.19,2.64l-.22.14-.14-.21A18,18,0,0,1,58,13.6a17.79,17.79,0,0,1-1.13-4,6.57,6.57,0,0,1-2.68,1.73l-.16.06-.12-.12a6.8,6.8,0,0,1-1.49-2.31,23.14,23.14,0,0,1-2.89,2.8,24.49,24.49,0,0,1-4.11,2.7l-.18.09-.13-.14A19.24,19.24,0,0,1,42.45,11a19.14,19.14,0,0,1-2.19-5.26,7.83,7.83,0,0,1-1.51,1.22h0a.28.28,0,0,1-.13,0h0a.31.31,0,0,1-.13,0h0A7.83,7.83,0,0,1,37,5.71,19.14,19.14,0,0,1,34.77,11a19.34,19.34,0,0,1-2.65,3.39L32,14.5l-.17-.09a24.57,24.57,0,0,1-4.12-2.7,23.85,23.85,0,0,1-2.89-2.8,6.63,6.63,0,0,1-1.48,2.31l-.12.12L23,11.28a6.67,6.67,0,0,1-2.69-1.73,17.29,17.29,0,0,1-1.13,4,17.06,17.06,0,0,1-1.76,3.26l-.15.21-.22-.14a19,19,0,0,1-3.18-2.64A18.17,18.17,0,0,1,12.05,12a5.49,5.49,0,0,1-1.48,2.71l-.12.12-.15-.05A5.18,5.18,0,0,1,8.83,14c.6,1.47,1.15,3,1.63,4.44A57.24,57.24,0,0,1,12.16,25C14.59,22.7,25.53,21,38.61,21h0c13.08,0,24,1.67,26.44,3.95a59,59,0,0,1,1.71-6.53c.48-1.48,1-3,1.63-4.44a5.46,5.46,0,0,1-1.47.78Z"/><path class="cls-2" d="M45.1,14.36C40.32,9.25,38.61,0,38.61,0,36.15,10.86,32,14.5,32,14.5c-8.59-4.68-10.19-11-10.19-11-1.66,8.9-4.48,13.55-4.48,13.55A35.27,35.27,0,0,1,7.22,4.79,75.49,75.49,0,0,0,12.16,25S22.07,20.84,38.61,21Z"/></g><g class="cls-4"><path class="cls-2" d="M10.45,14.84l.12-.12A5.49,5.49,0,0,0,12.05,12a18.17,18.17,0,0,0,1.86,2.28,18.65,18.65,0,0,0,3.19,2.64l.21.14.15-.21a17.37,17.37,0,0,0,1.76-3.26,17.29,17.29,0,0,0,1.13-4A6.67,6.67,0,0,0,23,11.28l.16.06.12-.12A6.63,6.63,0,0,0,24.8,8.91a23.85,23.85,0,0,0,2.89,2.8,24.57,24.57,0,0,0,4.12,2.7l.17.09.14-.14A19.24,19.24,0,0,0,34.77,11,19.14,19.14,0,0,0,37,5.71a7.83,7.83,0,0,0,1.51,1.22h0a.31.31,0,0,0,.13,0h0a.28.28,0,0,0,.13,0h0a7.83,7.83,0,0,0,1.51-1.22A19.14,19.14,0,0,0,42.45,11a18.88,18.88,0,0,0,2.65,3.39l.13.14.18-.09a24.49,24.49,0,0,0,4.11-2.7,23.14,23.14,0,0,0,2.89-2.8,6.8,6.8,0,0,0,1.49,2.31l.12.12.16-.06a6.57,6.57,0,0,0,2.68-1.73,17.6,17.6,0,0,0,2.9,7.31l.14.21.22-.14a18.65,18.65,0,0,0,3.19-2.64A18.17,18.17,0,0,0,65.17,12a5.41,5.41,0,0,0,1.48,2.71l.11.12.16-.05A5.46,5.46,0,0,0,68.39,14c-.61,1.47-1.15,3-1.63,4.44A59.44,59.44,0,0,0,65.05,25C62.63,22.7,51.69,21,38.61,21h0C25.53,21,14.6,22.7,12.16,25a56.86,56.86,0,0,0-1.7-6.53c-.48-1.48-1-3-1.63-4.44a5.18,5.18,0,0,0,1.47.78Z"/><path class="cls-2" d="M32.12,14.36C36.9,9.25,38.61,0,38.61,0c2.45,10.86,6.62,14.5,6.62,14.5,8.59-4.68,10.2-11,10.2-11,1.66,8.9,4.47,13.55,4.47,13.55A35.23,35.23,0,0,0,70,4.79a75.3,75.3,0,0,1-5,20.18S55.15,20.84,38.61,21Z"/></g><path class="cls-2" d="M57,27.59a1,1,0,0,1,.42-1.44c1.08-.61,3.73-.47,6.59.34.4.12.74.22,1,.33a.67.67,0,0,0-.08-.3c-1.06-2-11.21-4.14-26.36-4.14h0c-15.15,0-25.3,2.1-26.36,4.14a.67.67,0,0,0-.08.3l1-.33c2.86-.81,5.5-.95,6.59-.34a1.09,1.09,0,0,1,.55.62,1.07,1.07,0,0,1-.14.82c-.6,1.09-2.92,2.37-5.78,3.18a19.9,19.9,0,0,1-2.26.51v1.36c2.21-2.07,11.32-4,26.44-4h0c15.12,0,24.23,1.92,26.44,4V31.28a20.4,20.4,0,0,1-2.26-.51C59.93,30,57.61,28.68,57,27.59Zm-18.39.3h0c-3.29,0-6.79-.78-6.79-2.22s3.5-2.23,6.79-2.23h0c3.29,0,6.79.78,6.79,2.23S41.9,27.89,38.61,27.89Z"/></g></g></svg>