<svg xmlns="http://www.w3.org/2000/svg" viewBox="-0.5 -2 80 120"><defs><style>.cls-1,.cls-2{fill:#1d242d;}.cls-2,.cls-3{stroke:#f2edd3;stroke-miterlimit:10;stroke-width:0.5px;}.cls-3{fill:none;}</style></defs><title>Fichier 2</title><g id="Calque_2" data-name="Calque 2"><g id="Calque_1-2" data-name="Calque 1"><path class="cls-1" d="M66,19.27a5.08,5.08,0,0,0-.12,1.55,4.91,4.91,0,0,0,1.32,2.94,4.91,4.91,0,0,0,2-1.4h0a5,5,0,0,0-.15-6.59A4.87,4.87,0,0,0,66,19.27Zm3.56.83a2.8,2.8,0,0,1-1.83,2l-.16.05-.12-.12a2.81,2.81,0,0,1,1.08-4.66l.16-.06.12.12A2.82,2.82,0,0,1,69.55,20.1Z"/><path class="cls-1" d="M67,24.38l-.11-.12a5.46,5.46,0,0,1-1.48-2.71,17.39,17.39,0,0,1-1.86,2.27,18.26,18.26,0,0,1-3.19,2.65l-.22.14L60,26.4a18,18,0,0,1-1.77-3.26,17.79,17.79,0,0,1-1.13-4.05,6.57,6.57,0,0,1-2.68,1.73l-.16.05-.12-.11a6.9,6.9,0,0,1-1.49-2.31,23.68,23.68,0,0,1-2.88,2.79A24.42,24.42,0,0,1,45.69,24l-.18.09-.13-.15a18.81,18.81,0,0,1-2.65-3.38,19.14,19.14,0,0,1-2.19-5.26A7.83,7.83,0,0,1,39,16.47h0a.2.2,0,0,1-.13,0h0a.2.2,0,0,1-.13,0h0a7.83,7.83,0,0,1-1.51-1.22,19.14,19.14,0,0,1-2.19,5.26A19.24,19.24,0,0,1,32.4,23.9l-.14.14L32.09,24A24,24,0,0,1,28,21.24a23.76,23.76,0,0,1-2.89-2.79,6.72,6.72,0,0,1-1.48,2.31l-.12.11-.16-.05a6.67,6.67,0,0,1-2.69-1.73,17.78,17.78,0,0,1-2.89,7.31l-.15.21-.21-.14a18.26,18.26,0,0,1-3.19-2.65,17.39,17.39,0,0,1-1.86-2.27,5.54,5.54,0,0,1-1.48,2.71l-.12.12-.15-.06a5.57,5.57,0,0,1-1.47-.77c.6,1.47,1.15,3,1.63,4.44a57.24,57.24,0,0,1,1.7,6.52c2.43-2.27,13.37-3.94,26.45-3.94h0c13.08,0,24,1.66,26.44,3.94A59.44,59.44,0,0,1,67,28c.48-1.48,1-3,1.63-4.44a5.73,5.73,0,0,1-1.47.77Z"/><path class="cls-1" d="M53.05,17.89a6.24,6.24,0,0,0,1.39,2.37,6.13,6.13,0,0,0,3.82-4.34,6,6,0,0,0-1.51-5.58A6.11,6.11,0,0,0,53,17.86Zm.86-3a3.32,3.32,0,0,1,2.2-2.43l.16-.06.11.12a3.38,3.38,0,0,1-1.3,5.6l-.16.06-.11-.12A3.36,3.36,0,0,1,53.91,14.9Z"/><path class="cls-1" d="M11.9,20.82a4.78,4.78,0,0,0-.11-1.55,4.87,4.87,0,0,0-3.06-3.51,5,5,0,0,0-.15,6.59h0a4.85,4.85,0,0,0,2,1.4A4.9,4.9,0,0,0,11.9,20.82Zm-1.68,1.36-.16-.05A2.83,2.83,0,0,1,9,17.46l.12-.12.15.06a2.82,2.82,0,0,1,1.09,4.66Z"/><path class="cls-1" d="M20.67,18.31a6,6,0,0,0,2.67,2,6.24,6.24,0,0,0,1.39-2.37v0a6.13,6.13,0,0,0,.11-3.18A6.07,6.07,0,0,0,21,10.34a6,6,0,0,0-1.51,5.58,5.84,5.84,0,0,0,1.15,2.39Zm.72-5.78.12-.12.16.06a3.32,3.32,0,0,1,2.2,2.43,3.36,3.36,0,0,1-.9,3.17l-.11.12-.16-.06a3.39,3.39,0,0,1-1.31-5.6Z"/><path class="cls-1" d="M57.28,36.32a1.08,1.08,0,0,1-.13-.82,1,1,0,0,1,.55-.63c1.08-.61,3.73-.47,6.59.35.4.11.74.22,1,.32a.6.6,0,0,0-.08-.29c-1.06-2-11.21-4.14-26.36-4.14h0c-15.15,0-25.3,2.1-26.35,4.13a.58.58,0,0,0-.09.3l1-.32c2.86-.82,5.5-1,6.59-.35a1.08,1.08,0,0,1,.55.63,1,1,0,0,1-.14.82c-.6,1.09-2.92,2.36-5.78,3.18a19.39,19.39,0,0,1-2.26.5v1.37c2.21-2.08,11.32-4,26.44-4h0c15.12,0,24.23,1.91,26.44,4V40a20.34,20.34,0,0,1-2.26-.5C60.21,38.68,57.89,37.41,57.28,36.32Zm-18.39.3h0c-3.29,0-6.79-.78-6.79-2.23s3.5-2.23,6.79-2.23h0c3.29,0,6.79.78,6.79,2.23S42.18,36.62,38.89,36.62Z"/><polygon class="cls-1" points="29.02 4.89 33.16 4.89 37.63 15.26 29.02 4.89"/><polygon class="cls-1" points="33.81 4.89 38.56 4.89 38.56 15.85 33.81 4.89"/><polygon class="cls-1" points="33.81 4.25 38.56 0.39 38.56 4.25 33.81 4.25"/><polygon class="cls-1" points="33.33 3.91 32.49 0 37.92 0 33.33 3.91"/><polygon class="cls-1" points="29.02 4.25 31.96 0.39 32.79 4.25 29.02 4.25"/><polygon class="cls-1" points="48.76 4.89 44.62 4.89 40.15 15.26 48.76 4.89"/><polygon class="cls-1" points="43.96 4.89 39.22 4.89 39.22 15.85 43.96 4.89"/><polygon class="cls-1" points="43.96 4.25 39.22 0.39 39.22 4.25 43.96 4.25"/><polygon class="cls-1" points="44.45 3.91 45.28 0 39.85 0 44.45 3.91"/><polygon class="cls-1" points="48.76 4.25 45.82 0.39 44.99 4.25 48.76 4.25"/><polygon class="cls-2" points="5.37 52.07 15.77 52.07 20.85 60.98 15.72 69.87 5.37 69.87 0.29 60.98 5.37 52.07"/><polygon class="cls-2" points="4.04 60.98 7.29 55.32 13.7 55.32 17 60.98 13.85 66.42 7.34 66.42 4.04 60.98"/><line class="cls-3" x1="7.34" y1="66.42" x2="5.37" y2="69.87"/><line class="cls-3" x1="13.85" y1="66.42" x2="15.72" y2="69.87"/><line class="cls-3" x1="17" y1="60.98" x2="20.85" y2="60.98"/><line class="cls-3" x1="13.7" y1="55.32" x2="15.77" y2="52.07"/><line class="cls-3" x1="7.29" y1="55.32" x2="5.37" y2="52.07"/><line class="cls-3" x1="4.04" y1="60.98" x2="0.29" y2="60.98"/><polygon class="cls-2" points="34.32 52.08 44.73 52.08 49.81 61 44.68 69.88 34.32 69.88 29.24 61 34.32 52.08"/><polygon class="cls-2" points="32.99 61 36.25 55.34 42.66 55.34 45.96 61 42.8 66.43 36.3 66.43 32.99 61"/><line class="cls-3" x1="36.3" y1="66.43" x2="34.32" y2="69.88"/><line class="cls-3" x1="42.8" y1="66.43" x2="44.68" y2="69.88"/><line class="cls-3" x1="45.96" y1="61" x2="49.81" y2="61"/><line class="cls-3" x1="42.66" y1="55.34" x2="44.73" y2="52.08"/><line class="cls-3" x1="36.25" y1="55.34" x2="34.32" y2="52.08"/><line class="cls-3" x1="32.99" y1="61" x2="29.24" y2="61"/><polygon class="cls-2" points="63.28 52.1 73.68 52.1 78.76 61.01 73.63 69.9 63.28 69.9 58.2 61.01 63.28 52.1"/><polygon class="cls-2" points="61.95 61.01 65.2 55.35 71.61 55.35 74.92 61.01 71.76 66.45 65.25 66.45 61.95 61.01"/><line class="cls-3" x1="65.25" y1="66.45" x2="63.28" y2="69.9"/><line class="cls-3" x1="71.76" y1="66.45" x2="73.63" y2="69.9"/><line class="cls-3" x1="74.92" y1="61.01" x2="78.76" y2="61.01"/><line class="cls-3" x1="71.61" y1="55.35" x2="73.68" y2="52.1"/><line class="cls-3" x1="65.2" y1="55.35" x2="63.28" y2="52.1"/><line class="cls-3" x1="61.95" y1="61.01" x2="58.2" y2="61.01"/><polygon class="cls-2" points="19.84 74.2 30.25 74.2 35.33 83.11 30.2 92 19.84 92 14.77 83.11 19.84 74.2"/><polygon class="cls-2" points="18.51 83.11 21.77 77.45 28.18 77.45 31.48 83.11 28.33 88.55 21.82 88.55 18.51 83.11"/><line class="cls-3" x1="21.82" y1="88.55" x2="19.84" y2="92"/><line class="cls-3" x1="28.33" y1="88.55" x2="30.2" y2="92"/><line class="cls-3" x1="31.48" y1="83.11" x2="35.33" y2="83.11"/><line class="cls-3" x1="28.18" y1="77.45" x2="30.25" y2="74.2"/><line class="cls-3" x1="21.77" y1="77.45" x2="19.84" y2="74.2"/><line class="cls-3" x1="18.51" y1="83.11" x2="14.77" y2="83.11"/><polygon class="cls-2" points="48.8 74.21 59.2 74.21 64.28 83.13 59.16 92.01 48.8 92.01 43.72 83.13 48.8 74.21"/><polygon class="cls-2" points="47.47 83.13 50.72 77.47 57.13 77.47 60.44 83.13 57.28 88.56 50.77 88.56 47.47 83.13"/><line class="cls-3" x1="50.77" y1="88.56" x2="48.8" y2="92.01"/><line class="cls-3" x1="57.28" y1="88.56" x2="59.16" y2="92.01"/><line class="cls-3" x1="60.44" y1="83.13" x2="64.28" y2="83.13"/><line class="cls-3" x1="57.13" y1="77.47" x2="59.21" y2="74.21"/><line class="cls-3" x1="50.72" y1="77.47" x2="48.8" y2="74.21"/><line class="cls-3" x1="47.47" y1="83.13" x2="43.72" y2="83.13"/><polygon class="cls-2" points="34.27 96.34 44.68 96.34 49.76 105.26 44.63 114.14 34.27 114.14 29.2 105.26 34.27 96.34"/><polygon class="cls-2" points="32.94 105.26 36.2 99.6 42.61 99.6 45.91 105.26 42.76 110.69 36.25 110.69 32.94 105.26"/><line class="cls-3" x1="36.25" y1="110.69" x2="34.27" y2="114.14"/><line class="cls-3" x1="42.75" y1="110.69" x2="44.63" y2="114.14"/><line class="cls-3" x1="45.91" y1="105.26" x2="49.76" y2="105.26"/><line class="cls-3" x1="42.61" y1="99.6" x2="44.68" y2="96.34"/><line class="cls-3" x1="36.2" y1="99.6" x2="34.27" y2="96.34"/><line class="cls-3" x1="32.94" y1="105.26" x2="29.2" y2="105.26"/></g></g></svg>
