<svg xmlns="http://www.w3.org/2000/svg" viewBox="0 0 86.2 96"><defs><style>.cls-1{fill:#494f54;}</style></defs><g id="Calque_2" data-name="Calque 2"><g id="_11" data-name="11"><path id="icon" class="cls-1" d="M23.06,44.34c-2.18-4.9-4.43-10-4.43-20.44V1a1,1,0,0,0-1-1H9.69a1,1,0,0,0-1,1V23.9c0,10.46-2.25,15.54-4.43,20.44A40.93,40.93,0,0,0,0,63.34V95a1,1,0,0,0,1,1H26.33a1,1,0,0,0,1-1V63.34A40.79,40.79,0,0,0,23.06,44.34ZM7,87.09H5V64.71H7Zm44.65,4.68H51.3a34.56,34.56,0,0,1-21.61-7.88L31,82.35a32.5,32.5,0,0,0,20.34,7.42h.78a32.55,32.55,0,0,0-.15-65.1h-.51A32.57,32.57,0,0,0,24.54,39.2l-1.66-1.1A34.52,34.52,0,0,1,51.42,22.67H52a34.55,34.55,0,0,1,.15,69.1Zm3.45-31H34.29v-2H53.1V36.62h2Z"/></g></g></svg>