<svg id="Calque_1" data-name="Calque 1" xmlns="http://www.w3.org/2000/svg" viewBox="0 0 864 864"><defs><style>.cls-1{fill:#131e29;}</style></defs><path class="cls-1" d="M864,648c0,60,0,119-3,178-3,69-19,131-70,181-50,51-112,67-181,70-59,3-118,3-178,3s-119,0-178-3c-69-3-131-19-181-70C22,957,6,895,3,826,0,767,0,708,0,648S0,529,3,470c3-69,19-131,70-181,50-51,112-67,181-70,59-3,118-3,178-3s119,0,178,3c69,3,131,19,181,70,51,50,67,112,70,181C864,529,864,588,864,648ZM432,294c-63,0-198-5-255,17-20,8-34,18-49,33s-25,29-33,49C73,450,78,585,78,648S73,846,95,903c8,20,18,34,33,49s29,25,49,33c57,22,192,17,255,17s198,5,255-17c20-8,34-18,49-33,16-15,25-29,33-49,22-57,17-192,17-255s5-198-17-255c-8-20-17-34-33-49-15-15-29-25-49-33C630,289,495,294,432,294ZM714,417c0,29-23,52-51,52a51.64,51.64,0,0,1-52-52c0-28,23-51,52-51A51.21,51.21,0,0,1,714,417ZM654,648A222,222,0,1,1,432,426,221.5,221.5,0,0,1,654,648Zm-78,0c0-79-65-144-144-144S288,569,288,648s65,144,144,144S576,727,576,648Z" transform="translate(0 -216)"/></svg>