<?xml version="1.0" encoding="utf-8"?>
<!-- Generator: Adobe Illustrator 25.2.0, SVG Export Plug-In . SVG Version: 6.00 Build 0)  -->
<svg version="1.1" id="Calque_1" xmlns="http://www.w3.org/2000/svg" xmlns:xlink="http://www.w3.org/1999/xlink" x="0px" y="0px"
	 viewBox="0 0 595.28 175.44" style="enable-background:new 0 0 595.28 175.44;" xml:space="preserve">
<style type="text/css">
	.st0{display:none;fill:#2D2D37;}
	.st1{fill:#E51935;}
	.st2{fill:#0E1728;}
	.st3{fill:#FFFFFF;}
	.st4{fill:none;stroke:#000000;stroke-width:2;stroke-miterlimit:10;}
	.st5{opacity:0.21;fill:#FFFFFF;}
	.st6{opacity:0.1;fill:#FFFFFF;}
	.st7{fill:#0E1728;stroke:#FFFFFF;stroke-width:0.25;stroke-miterlimit:10;}
	.st8{fill:#2D2D37;}
	.st9{fill:#1E1E1C;}
	.st10{fill:#221F20;}
</style>
<g>
	<g>
		<g>
			<path class="st3" d="M83.93,117.55c-16.85,0-39.79-19.15-26.44-36.38c2.95-3.81,7.27-6.55,12.19-6.64
				c4.14-0.08,10.88,2.42,10.6,7.61c-0.27,5.1-7.89,3.69-7.65,8.97c0.24,5.36,7.26,3.66,10.27,1.94c9.32-5.31,8.08-18.23-0.05-23.85
				c-8.71-6.02-20.8-4.61-28.87,1.67c-16.8,13.09-10.48,39.21,6.69,48.81c16.95,9.48,38.97,4.43,50.53-10.97
				c12.04-16.04,12.57-40,0.99-56.4C100.14,35.25,77.7,27.45,57.45,30.75c-23.68,3.86-42.04,23.04-48.3,46
				c-6.06,22.22,0.12,48.94,16.76,65.16c9.54,9.29,21.39,16.99,34.09,21.01c12.16,3.84,32.22,3.91,32.21,2.42
				c0,0.07-16.9-1.41-17.25-1.47c-4.67-0.77-9.22-1.5-13.61-3.26c-1.77-0.71-8.16-2.38-8.16-4.81c2.85,0,12.45,4.25,14.54,2.58
				c-0.05,0.04-8.61-3.7-8.75-3.52c8.4,1.76,10.92,2.87,10.98,2.18c0.1-1.13-1.89-1.33-3.89-2.35c-1.62-0.82,8.31,0.87,9.96,0.99
				c10.5,0.78,20.95-0.26,30.76-4.2c17.47-7.02,31.94-21.23,40.03-38.15c7.53-15.75,9.19-33.15,6.38-50.25
				c-0.14-0.84-1.88-7.59-3.14-7.73c0,0,1.31,5.45,1.36,6.29c0.48,7.89,0.87,15.38-0.32,23.3c-0.2,1.31-2.42,8.81-2.4,6.68
				c0.01-0.75-0.4-6.77-0.39-8.12c0.01-1.56-0.65-12.08-1.57-12.26c-0.92-0.17,2.01,14.99-1.77,22.42
				c-0.18-13.54-0.7-18.89-0.77-20.19c-0.58-11.67-5.73-22.88-12.28-32.38c-6.36-9.23-14.48-17.27-24.07-23.12
				c-5.21-3.18-10.8-5.75-16.61-7.61c-2.72-0.87-5.49-1.59-8.3-2.1C82.3,8.14,76.57,7.47,76.9,8c1.9,3.06,11.25,4.57,14.54,5.81
				c5.85,2.22,11.78,4.64,17,8.15c9.35,6.27,21.05,25.54,20.67,25.94c-0.39,0.4-3.63-4.73-4.06-4.55
				c-0.43,0.19,4.88,6.59,7.35,17.28c2.48,10.69,2.81,20.02,1.38,29.7c-1.46,9.88-5.21,18.11-10.96,26.17
				c-1.34,1.87-6.38,5.55-4.57,3.12c4.8-6.44,8.5-12.31,11.29-19.99c6.29-17.29,4.49-40.13-7.15-54.88
				c1.83,2.32,0.54,0.64-0.67-0.63c-1.03-1.08-2.03-2.16-3.1-3.21c-1.9-1.86-3.89-3.62-5.97-5.27c-4.35-3.46-9.05-6.46-14.05-8.9
				c-10.25-4.99-22-7.82-33.43-7.18c-10.16,0.58-20.41,3.82-29.24,8.83c-1.35,0.77-14.86,8.56-14.15,9.65
				c0.71,1.08,5.07-4.2,6.12-3.43c0.11,0.08-1.56,1.46-1.53,1.67c2.42-0.88,4.74-2.47,7.41-2.47c0,2.48-5.55,5.37-7.18,6.98
				c-3.98,3.93-10.51,11.23-13.33,16.76C7.29,69.29,5.64,76.26,6.4,76.35c0.76,0.08,6.39-14.25,8.79-18.4
				c1.53-2.65,4.09-6.72,7.91-10.8c7.99-8.54,18.46-14.62,29.74-17.62c11.16-2.97,23.08-2.97,34.19,0.23
				c6.57,1.89,12.7,4.92,18.43,8.64c1.05,0.69,13.65,10.69,10.64,11.63c-0.76,0.24-5.93-5.6-6.49-6.13
				c-1.02-0.8-6.08-5.04-7.35-4.04c-0.15,0.12,4.81,3.38,5.52,4.03c4.39,4.01,9.58,11.74,11.8,17.22c5.8,14.28,4.9,29.78-0.77,43.91
				c-4.51,11.23-11.98,19.99-23.66,24.2c-7.17,2.58-15.2,3-22.68,1.65c-0.9-0.16-14.64-4.93-14.84-4.53
				c-0.68,1.35,9.9,5.36,10.7,5.62c6.73,2.26,13.54,2.55,20.53,1.48c6.31-0.97,12.24-3.42,18.24-5.51c-3.12,3.96-19.82,8.1-27.83,8
				c-6.26-0.08-12.55-1.34-18.43-3.48c-1.69-0.61-11.72-7.02-12.97-6.33c-0.64,0.36,1.45,2.44,1.64,2.69
				c-11.89-5.79-17.73-20.7-19.04-33.14c-0.51-4.88,0.45-9.53,1.88-14.18c0.27-0.88,3.72-11.82,3.75-11.82
				c-2.41-0.29-6.55,15.29-6.96,17.04c-2.01,8.67-0.95,17.77,2.47,25.95c3.14,7.51,8.25,14.13,14.43,19.38
				c2.99,2.54,6.48,5.37,10.09,6.97c3.99,1.78,8.73,3.38,12.99,4.29c8.74,1.87,33.64,0.21,47.86-9.65
				c6.81-4.73,12.75-10.78,17.44-17.62c2.23-3.26,4.16-6.72,5.68-10.37c0.93-2.23,0.47-3.44,2.19-4.68
				c1.46-1.06,0.38,1.52,0.22,2.02c-1.44,4.44-3.13,8.71-5.49,12.75c-4.33,7.4-9.98,14.06-16.66,19.45
				c-5.51,4.45-11.6,7.53-18.16,10.11c-1.15,0.45-13.75,4.4-12.72,3.38c11.68-3.31,22.54-8.86,21.82-8.78
				c-0.79,0.08-7.67,2.42-8.39,2.64c-4.85,1.47-9.8,2.61-14.83,3.22c-9.63,1.19-19.66,0.58-28.77-2.96
				c-8.05-3.13-15.05-8.56-20.86-14.95c-10.7-11.77-9.81-15.83-11.34-15.49c-1.19,0.26,4.51,12.89,1.47,10.18
				c-3.04-2.71-5.88-15.57-6.54-18.67c-2-9.53-1.62-17.8,1.13-27.22c1.61-5.51,7.3-14.34,6.53-13.58
				c-7.61,7.61-8.98,13.79-9.58,15.7c-3.03,9.53-2,20.68-0.5,30.32C9.74,80.3,26.45,49.8,54.4,39.23
				c16.57-6.27,34.07-5.18,47.86,6.71c11.79,10.17,18.58,26.65,15.25,42.13C114.12,103.83,100.4,117.01,83.93,117.55"/>
		</g>
	</g>
	<g>
		<path class="st3" d="M185.9,111.96V69.34h-6.88v-7.49h15.77v50.11H185.9z M190.77,42.9c1.53,0,2.83,0.54,3.91,1.61
			c1.08,1.08,1.61,2.36,1.61,3.86c0,1.53-0.54,2.83-1.61,3.91c-1.08,1.08-2.38,1.61-3.91,1.61c-1.5,0-2.78-0.54-3.86-1.61
			c-1.08-1.08-1.61-2.38-1.61-3.91c0-1.53,0.53-2.82,1.59-3.88C187.94,43.43,189.24,42.9,190.77,42.9z"/>
		<path class="st3" d="M223.43,111.96h-13.8V43.42c8.8-0.31,14.43-0.47,16.89-0.47c9.58,0,17.16,2.91,22.74,8.73
			c5.58,5.82,8.38,13.56,8.38,23.23C257.63,99.61,246.23,111.96,223.43,111.96z M218.98,51.84v51.24c2.09,0.31,4.68,0.47,7.77,0.47
			c6.55,0,11.7-2.46,15.44-7.37s5.61-11.74,5.61-20.47c0-16.22-7.28-24.33-21.85-24.33C225.08,51.37,222.76,51.53,218.98,51.84z"/>
		<path class="st3" d="M309.9,87.77h-36.12c0,5.86,1.61,10.37,4.82,13.52c2.84,2.75,6.49,4.12,10.95,4.12
			c5.08,0,9.33-1.48,12.73-4.45l3.74,6.41c-1.37,1.37-3.48,2.56-6.32,3.56c-3.56,1.31-7.52,1.97-11.88,1.97
			c-6.3,0-11.65-2.14-16.05-6.41c-4.9-4.71-7.35-11.04-7.35-19c0-8.27,2.51-14.9,7.53-19.89c4.49-4.46,9.81-6.69,15.96-6.69
			c7.14,0,12.74,2.01,16.8,6.04c3.93,3.87,5.9,9,5.9,15.39C310.6,84.31,310.36,86.12,309.9,87.77z M288.32,68.4
			c-3.96,0-7.28,1.28-9.97,3.84c-2.56,2.43-4.01,5.46-4.35,9.08h27.75c0-3.59-1.12-6.58-3.37-8.98
			C295.92,69.71,292.57,68.4,288.32,68.4z"/>
		<path class="st3" d="M348.26,106.21c-3.56,4.46-9,6.69-16.33,6.69c-3.93,0-7.34-1.43-10.22-4.28c-2.89-2.85-4.33-6.4-4.33-10.64
			c0-5.08,2.22-9.38,6.67-12.89c4.45-3.51,10.11-5.26,17.01-5.26c1.87,0,3.99,0.41,6.36,1.22c0-8.11-3.62-12.17-10.86-12.17
			c-5.55,0-9.83,1.5-12.82,4.49L320,65.92c1.68-1.37,4.02-2.55,7-3.53c2.98-0.98,5.83-1.47,8.54-1.47c7.27,0,12.55,1.65,15.84,4.96
			c3.29,3.31,4.94,8.56,4.94,15.77v17.97c0,4.4,1.31,7.33,3.93,8.8v4.45c-3.62,0-6.33-0.51-8.12-1.54
			C350.33,110.28,349.04,108.58,348.26,106.21z M347.42,87.35c-2.81-0.62-4.77-0.94-5.9-0.94c-4.49,0-8.16,1.16-11,3.46
			c-2.84,2.31-4.26,5.04-4.26,8.19c0,5.21,3.07,7.81,9.22,7.81c4.49,0,8.47-2.14,11.93-6.41V87.35z"/>
		<path class="st3" d="M371,97.79V41.31h8.89v54.98c0,2.68,0.77,4.8,2.32,6.34s3.56,2.32,6.06,2.32v7.95
			C376.76,112.9,371,107.86,371,97.79z"/>
		<path class="st3" d="M444.88,112.9h-2.34l-14.69-34.11l-14.65,34.11h-2.34l-17.92-51.19h9.5l10.71,32.89l13.34-32.89h2.34
			l13.76,32.89l11.51-32.89h8.75L444.88,112.9z"/>
		<path class="st3" d="M474.18,111.96V69.34h-6.88v-7.49h15.77v50.11H474.18z M479.04,42.9c1.53,0,2.83,0.54,3.91,1.61
			c1.08,1.08,1.61,2.36,1.61,3.86c0,1.53-0.54,2.83-1.61,3.91c-1.08,1.08-2.38,1.61-3.91,1.61c-1.5,0-2.78-0.54-3.86-1.61
			s-1.61-2.38-1.61-3.91c0-1.53,0.53-2.82,1.59-3.88C476.22,43.43,477.51,42.9,479.04,42.9z"/>
		<path class="st3" d="M528.03,111.96V82.81c0-5.33-0.8-9.07-2.41-11.21c-1.61-2.14-4.3-3.21-8.07-3.21c-2.03,0-4.15,0.61-6.36,1.82
			c-2.22,1.22-3.92,2.71-5.1,4.49v37.25h-8.89V61.85h6.08l2.81,6.46c2.93-4.93,7.72-7.39,14.36-7.39c10.98,0,16.47,6.68,16.47,20.03
			v31.02H528.03z"/>
		<path class="st3" d="M591.76,87.77h-36.12c0,5.86,1.61,10.37,4.82,13.52c2.84,2.75,6.49,4.12,10.95,4.12
			c5.08,0,9.33-1.48,12.73-4.45l3.74,6.41c-1.37,1.37-3.48,2.56-6.32,3.56c-3.56,1.31-7.52,1.97-11.88,1.97
			c-6.3,0-11.65-2.14-16.05-6.41c-4.9-4.71-7.35-11.04-7.35-19c0-8.27,2.51-14.9,7.53-19.89c4.49-4.46,9.81-6.69,15.96-6.69
			c7.14,0,12.74,2.01,16.8,6.04c3.93,3.87,5.9,9,5.9,15.39C592.46,84.31,592.23,86.12,591.76,87.77z M570.19,68.4
			c-3.96,0-7.28,1.28-9.97,3.84c-2.56,2.43-4.01,5.46-4.35,9.08h27.75c0-3.59-1.12-6.58-3.37-8.98
			C577.78,69.71,574.43,68.4,570.19,68.4z"/>
	</g>
</g>
</svg>
