<?xml version="1.0" standalone="no"?>
<!DOCTYPE svg PUBLIC "-//W3C//DTD SVG 20010904//EN"
 "http://www.w3.org/TR/2001/REC-SVG-20010904/DTD/svg10.dtd">
<svg version="1.0" xmlns="http://www.w3.org/2000/svg"
 width="700.000000pt" height="700.000000pt" viewBox="0 0 700.000000 700.000000"
 preserveAspectRatio="xMidYMid meet">
<metadata>
Created by potrace 1.14, written by Peter Selinger 2001-2017
</metadata>
<g transform="translate(0.000000,700.000000) scale(0.100000,-0.100000)"
fill="#000000" stroke="none">
<path d="M3363 6358 c-3 -6 5 -19 18 -30 61 -48 172 -90 404 -154 110 -30 284
-97 444 -170 68 -32 268 -143 295 -164 221 -178 413 -402 628 -735 138 -214
160 -277 45 -129 -32 42 -61 74 -63 71 -3 -2 15 -38 40 -80 117 -198 197 -412
246 -657 30 -150 35 -184 48 -330 13 -152 6 -505 -12 -595 -2 -11 -7 -42 -10
-70 -15 -106 -74 -331 -111 -420 -104 -249 -238 -479 -335 -575 -50 -50 -128
-106 -135 -98 -3 3 16 34 42 69 173 235 328 522 402 747 22 67 43 132 45 145
3 12 13 67 24 122 32 162 43 270 44 440 1 106 -10 304 -17 315 -2 3 -6 26 -9
51 -10 85 -48 244 -86 359 -58 175 -139 338 -234 470 -47 66 -243 266 -324
332 -31 25 -67 54 -79 65 -49 41 -62 51 -153 114 -300 208 -631 353 -978 429
-355 78 -694 72 -1047 -16 -55 -14 -105 -27 -112 -28 -7 -1 -16 -5 -19 -9 -4
-4 -14 -7 -21 -7 -15 0 -182 -61 -253 -92 -116 -51 -274 -137 -425 -229 -100
-62 -303 -200 -319 -218 -47 -52 28 -29 89 27 73 68 145 100 89 40 -16 -17
-22 -28 -14 -25 8 3 53 21 100 41 99 41 165 53 156 30 -3 -9 -6 -19 -6 -23 0
-16 -71 -81 -161 -149 -140 -104 -382 -372 -510 -564 -99 -150 -273 -538 -314
-702 -25 -102 -26 -108 -12 -104 13 4 52 77 101 188 162 365 175 394 225 485
36 64 145 226 183 271 135 160 240 262 383 371 263 199 591 352 900 419 52 12
123 25 155 30 19 3 40 7 47 9 74 24 541 24 658 -1 11 -3 40 -7 65 -11 79 -10
303 -70 405 -108 214 -80 455 -211 600 -326 82 -66 101 -83 222 -200 75 -73
122 -147 101 -160 -19 -12 -45 7 -146 113 -151 155 -301 264 -354 256 -19 -2
-8 -13 62 -63 114 -80 106 -74 160 -128 125 -125 266 -326 358 -512 60 -122
130 -337 147 -455 4 -24 8 -47 10 -50 10 -16 19 -177 20 -325 0 -216 -9 -302
-51 -489 -135 -593 -435 -1015 -864 -1214 -138 -64 -239 -94 -430 -127 -58
-10 -331 -14 -395 -5 -33 5 -76 10 -95 13 -19 2 -134 36 -255 75 -313 101
-325 104 -325 87 0 -47 383 -210 590 -249 130 -26 489 -26 562 -1 7 2 30 6 50
9 70 11 230 57 401 117 220 77 220 77 182 46 -73 -61 -332 -161 -525 -202 -87
-19 -173 -35 -210 -40 -25 -3 -71 -9 -103 -14 -89 -12 -324 -4 -418 14 -13 3
-52 10 -86 15 -87 14 -299 76 -353 103 -25 13 -106 57 -180 98 -189 105 -263
138 -275 120 -2 -5 9 -27 26 -50 l30 -42 -53 29 c-112 63 -253 199 -345 332
-137 199 -253 523 -291 817 -10 71 -8 211 2 293 12 92 74 313 167 593 34 105
35 111 10 98 -51 -28 -194 -425 -247 -686 -21 -107 -26 -357 -8 -472 62 -397
231 -723 529 -1018 116 -115 277 -245 381 -309 131 -80 432 -189 609 -221 126
-22 480 -23 615 -1 14 3 48 7 75 11 28 3 79 11 115 17 36 6 72 11 80 13 212
32 608 165 730 246 14 9 50 32 80 50 197 121 448 360 617 584 126 168 253 398
292 530 14 48 30 80 51 100 47 45 46 14 -4 -128 -148 -421 -369 -742 -731
-1067 -165 -148 -425 -302 -680 -403 -136 -54 -532 -170 -512 -151 3 3 72 28
154 55 231 79 643 253 629 267 -3 2 -83 -21 -178 -51 -248 -80 -416 -122 -558
-142 -25 -3 -52 -8 -60 -10 -71 -19 -501 -27 -630 -12 -354 41 -680 179 -970
410 -98 78 -295 278 -391 397 -100 123 -159 211 -220 325 -48 90 -72 117 -82
92 -2 -7 18 -84 44 -172 48 -157 57 -205 41 -205 -17 0 -61 57 -90 115 -41 82
-126 349 -146 455 -2 14 -11 54 -20 90 -8 36 -18 83 -21 105 -3 22 -8 46 -10
52 -19 56 -27 401 -12 523 9 82 33 204 59 300 35 133 70 210 228 505 l32 60
-47 -50 c-111 -119 -211 -270 -260 -390 -128 -318 -152 -689 -78 -1185 10 -67
-7 -23 -36 96 -16 65 -32 139 -35 164 -3 25 -9 70 -13 100 -9 70 -9 282 -1
380 7 79 38 246 59 320 7 25 13 50 15 55 37 166 225 526 361 693 166 205 354
373 554 497 249 154 580 279 819 309 25 3 56 9 70 12 76 16 372 11 490 -10
387 -68 712 -262 983 -586 163 -195 308 -507 352 -755 2 -16 8 -41 11 -55 14
-58 13 -346 -2 -435 -61 -370 -253 -690 -547 -911 -151 -114 -366 -210 -532
-239 -97 -16 -279 -14 -365 5 -254 55 -487 185 -669 370 -280 286 -332 618
-142 898 154 227 385 333 604 276 172 -44 267 -137 264 -258 -3 -73 -33 -110
-139 -164 -103 -54 -138 -95 -138 -161 0 -91 54 -141 149 -141 90 0 219 41
267 85 6 6 25 21 43 34 65 50 124 153 145 254 37 178 -22 366 -160 504 -49 48
-85 73 -166 112 -131 63 -215 83 -348 85 -139 1 -211 -9 -320 -44 -337 -110
-578 -382 -643 -725 -19 -103 -16 -312 7 -418 84 -385 351 -714 701 -865 193
-83 356 -116 570 -116 203 0 363 30 539 100 533 214 870 672 964 1309 15 102
7 434 -12 545 -32 182 -106 400 -183 538 -225 404 -602 707 -1075 865 -148 50
-304 85 -463 104 -120 14 -526 5 -555 -12 -3 -2 -26 -6 -50 -10 -103 -15 -299
-72 -415 -120 -160 -68 -365 -189 -509 -302 -104 -82 -320 -304 -402 -413
-124 -164 -222 -332 -302 -515 -36 -82 -91 -236 -93 -260 -1 -5 -6 -21 -11
-35 -29 -74 -64 -248 -85 -420 -10 -81 -10 -396 -1 -510 6 -71 24 -186 53
-335 12 -62 66 -243 99 -331 113 -303 282 -579 480 -784 466 -482 1106 -834
1646 -905 25 -3 52 -8 60 -10 8 -2 44 -7 80 -10 36 -4 76 -8 90 -10 95 -14
454 -21 540 -11 19 3 46 9 60 15 22 8 22 10 5 11 -11 1 -33 3 -50 4 -16 2 -73
6 -125 10 -52 4 -111 9 -130 11 -33 4 -67 7 -220 20 -78 7 -127 13 -160 20
-13 2 -42 7 -65 11 -184 26 -531 142 -622 207 -24 17 -43 39 -43 49 0 23 20
20 200 -32 171 -49 241 -63 286 -57 19 3 37 7 39 9 2 2 -56 28 -130 58 -73 30
-129 56 -124 58 4 2 72 -13 150 -32 142 -36 189 -43 189 -28 -1 18 -19 32 -70
52 -80 31 -86 43 -19 36 31 -4 65 -8 75 -10 11 -2 46 -7 79 -11 33 -4 71 -9
85 -11 154 -22 523 -22 635 0 21 4 90 15 140 22 104 15 284 66 421 120 110 43
325 149 376 185 14 11 31 19 36 19 6 0 12 3 14 8 2 4 41 33 88 64 80 54 229
169 276 213 252 237 387 398 542 645 183 294 317 636 378 970 26 143 28 156
41 275 10 101 11 516 0 615 -23 216 -32 269 -67 379 -27 87 -66 169 -74 160
-2 -2 7 -53 20 -114 44 -208 51 -673 15 -930 -18 -123 -88 -338 -92 -280 -4
75 -7 127 -13 255 -13 281 -35 472 -58 486 -7 4 -8 -40 -2 -137 10 -190 7
-392 -6 -476 -13 -84 -40 -182 -51 -189 -5 -3 -9 41 -10 98 -1 153 -15 495
-24 608 -16 186 -16 187 -41 305 -94 457 -416 999 -825 1388 -321 304 -674
515 -1084 646 -140 45 -289 79 -378 87 -34 3 -79 7 -100 9 -20 1 -40 -2 -44
-7z"/>
</g>
</svg>
